<svg xmlns="http://www.w3.org/2000/svg" width="66.19" height="64.535" viewBox="0 0 66.19 64.535">
  <path id="Icon_simple-adobeillustrator" data-name="Icon simple-adobeillustrator" d="M0,.45V64.985H66.19V.45ZM2.758,3.208H63.432v59.02H2.758Zm20.2,33.785-2.184,8.268c-.047.229-.138.281-.408.281H16.319c-.276,0-.317-.091-.276-.408l7.832-27.428a8.508,8.508,0,0,0,.27-2.3c0-.182.091-.276.229-.276h5.781c.182,0,.276.05.32.276l8.784,29.769c.047.229,0,.364-.229.364H34.48c-.229,0-.364-.055-.408-.237L31.8,36.99H22.951Zm7.689-4.482c-.772-3.05-2.592-9.73-3.276-12.962h-.047c-.59,3.227-2.046,8.687-3.185,12.962ZM43.059,17.182a2.821,2.821,0,0,1,5.643,0A2.642,2.642,0,0,1,45.834,20a2.593,2.593,0,0,1-2.785-2.821Zm.309,6.272c0-.221.091-.3.32-.3h4.33c.243,0,.331.091.331.32V45.244c0,.229-.044.32-.317.32H43.757c-.276,0-.367-.138-.367-.359V23.451Z" transform="translate(0 -0.45)" fill="#1ac5ff"/>
</svg>
