<svg xmlns="http://www.w3.org/2000/svg" width="48" height="48" viewBox="0 0 48 48">
  <path id="Icon_awesome-codepen" data-name="Icon awesome-codepen" d="M47.089,14.972,25.152.347a2.084,2.084,0,0,0-2.3,0L.911,14.972A2.1,2.1,0,0,0,0,16.686V31.311a2.1,2.1,0,0,0,.911,1.714L22.848,47.653a2.084,2.084,0,0,0,2.3,0L47.089,33.026A2.1,2.1,0,0,0,48,31.311V16.686a2.1,2.1,0,0,0-.911-1.714ZM26.062,5.918,42.214,16.686l-7.205,4.821-8.946-5.973Zm-4.125,0v9.616l-8.946,5.973L5.786,16.686ZM4.125,20.544,9.295,24l-5.17,3.455ZM21.937,42.079,5.786,31.311l7.205-4.821,8.946,5.973ZM24,28.874,16.714,24,24,19.124,31.286,24Zm2.062,13.205V32.463l8.946-5.973,7.205,4.821ZM43.875,27.454,38.705,24l5.17-3.455Z" transform="translate(0 0)" fill="#1ac5ff"/>
</svg>
