<svg xmlns="http://www.w3.org/2000/svg" width="48" height="48.096" viewBox="0 0 48 48.096">
  <path id="Icon_zocial-github" data-name="Icon zocial-github" d="M0,23.82a23.152,23.152,0,0,1,1.924-9.331A23.23,23.23,0,0,1,14.669,1.744a23.589,23.589,0,0,1,18.661,0A23.432,23.432,0,0,1,46.076,14.489a23.589,23.589,0,0,1,0,18.661A23.6,23.6,0,0,1,33.331,45.992a23.589,23.589,0,0,1-18.661,0A23.4,23.4,0,0,1,1.924,33.151,23.152,23.152,0,0,1,0,23.82Zm3.752,0a19.564,19.564,0,0,0,4.04,12.12A21.622,21.622,0,0,0,18.228,43.4V39.547a4.682,4.682,0,0,1,1.924-4.184,13.806,13.806,0,0,1-2.261-.337,11.364,11.364,0,0,1-4.184-1.539q-4.377-2.645-4.377-9.571a8.648,8.648,0,0,1,2.4-6.156,8.091,8.091,0,0,1,.24-6.156h.962a3.956,3.956,0,0,1,1.2.24,16.538,16.538,0,0,1,4.184,2.116,22.687,22.687,0,0,1,5.772-.77,23.242,23.242,0,0,1,5.82.77,20.491,20.491,0,0,1,3.511-1.924,5.214,5.214,0,0,1,2.212-.481l.577.048a8.4,8.4,0,0,1,.24,6.156,8.648,8.648,0,0,1,2.4,6.156q0,5.387-2.645,8.128a9.671,9.671,0,0,1-3.8,2.4,16.54,16.54,0,0,1-4.377.914,4.787,4.787,0,0,1,1.972,4.184V43.4a21.783,21.783,0,0,0,10.244-7.551A19.6,19.6,0,0,0,44.2,23.82a20.27,20.27,0,0,0-1.587-7.888A20.463,20.463,0,0,0,24,3.571a20.455,20.455,0,0,0-7.888,1.635A21.147,21.147,0,0,0,9.667,9.487a22.311,22.311,0,0,0-4.329,6.445A20.27,20.27,0,0,0,3.752,23.82Z" transform="translate(0 0.18)" fill="#fff"/>
</svg>
