<svg width="160" height="141" viewBox="0 0 160 141" fill="none" xmlns="http://www.w3.org/2000/svg">
<path d="M130.688 45.3751C129 44.8126 127.312 44.2813 125.625 43.7813C125.906 42.6251 126.156 41.4688 126.406 40.3126C130.25 21.6876 127.719 6.71881 119.188 1.78131C110.969 -2.93744 97.5625 1.96881 84 13.7813C82.6562 14.9376 81.3438 16.1563 80.0938 17.3751C79.25 16.5626 78.375 15.7501 77.5 14.9688C63.2812 2.34381 49.0312 -2.96869 40.5 2.00006C32.3125 6.75006 29.875 20.8438 33.3125 38.4688C33.6562 40.2188 34.0312 41.9376 34.4688 43.6876C32.4688 44.2501 30.5 44.8751 28.6562 45.5313C11.9688 51.3126 0 60.4376 0 69.8751C0 79.6251 12.75 89.4063 30.0938 95.3438C31.5 95.8126 32.9062 96.2813 34.3438 96.6875C33.875 98.5625 33.4688 100.406 33.0938 102.313C29.8125 119.656 32.375 133.406 40.5625 138.125C49 143 63.1875 138 77 125.906C78.0938 124.938 79.1875 123.938 80.2812 122.875C81.6562 124.219 83.0938 125.5 84.5312 126.75C97.9062 138.25 111.125 142.906 119.281 138.188C127.719 133.313 130.469 118.531 126.906 100.531C126.625 99.1563 126.312 97.7501 125.969 96.3126C126.969 96.0313 127.938 95.7188 128.906 95.4063C146.938 89.4375 160 79.7813 160 69.8751C160 60.4063 147.688 51.2188 130.688 45.3751ZM88.4062 18.8438C100.031 8.71881 110.875 4.75006 115.812 7.59381C121.094 10.6251 123.125 22.8751 119.812 38.9688C119.594 40.0313 119.375 41.0626 119.094 42.0938C112.156 40.5313 105.125 39.4063 98.0625 38.7813C94 32.9688 89.5625 27.4063 84.75 22.1876C85.9688 21.0313 87.1562 19.9376 88.4062 18.8438ZM52.25 86.0938C53.8438 88.8125 55.4688 91.5313 57.1875 94.1875C52.3125 93.6563 47.4688 92.875 42.6875 91.8438C44.0625 87.3438 45.7812 82.6875 47.7812 77.9375C49.2188 80.6875 50.6875 83.4063 52.25 86.0938ZM42.7812 48.5001C47.2812 47.5001 52.0625 46.6875 57.0312 46.0625C55.375 48.6563 53.75 51.3126 52.2188 54.0001C50.6875 56.6563 49.1875 59.3751 47.7812 62.1251C45.8125 57.4688 44.1562 52.9063 42.7812 48.5001ZM51.3438 70.0313C53.4062 65.7188 55.6562 61.5001 58.0312 57.3438C60.4062 53.1876 62.9688 49.1563 65.6562 45.1876C70.3438 44.8438 75.125 44.6563 80 44.6563C84.875 44.6563 89.6875 44.8438 94.3438 45.1876C97 49.1251 99.5312 53.1563 101.938 57.2813C104.344 61.4063 106.594 65.625 108.719 69.9063C106.625 74.2188 104.375 78.4688 101.969 82.6563C99.5938 86.8125 97.0625 90.8438 94.4062 94.8438C89.75 95.1875 84.9062 95.3438 80 95.3438C75.0938 95.3438 70.3438 95.1876 65.75 94.9063C63.0312 90.9376 60.4688 86.8751 58.0625 82.7188C55.6562 78.5626 53.4375 74.3438 51.3438 70.0313ZM107.781 86.0313C109.375 83.2813 110.875 80.5001 112.344 77.6876C114.344 82.2188 116.094 86.8125 117.625 91.5313C112.781 92.625 107.875 93.4688 102.938 94.0313C104.625 91.4063 106.219 88.7188 107.781 86.0313ZM112.281 62.1251C110.812 59.3751 109.312 56.6251 107.75 53.9376C106.219 51.2813 104.625 48.6563 102.969 46.0625C108 46.6875 112.812 47.5313 117.312 48.5625C115.875 53.1875 114.188 57.6876 112.281 62.1251ZM80.0625 26.9688C83.3438 30.5313 86.4375 34.2813 89.3125 38.1563C83.125 37.8751 76.9062 37.8751 70.7188 38.1563C73.7812 34.1251 76.9375 30.3751 80.0625 26.9688ZM43.8125 7.81256C49.0625 4.75006 60.7188 9.12506 73 20.0001C73.7812 20.6876 74.5625 21.4376 75.375 22.1876C70.5312 27.4063 66.0625 32.9688 61.9688 38.7813C54.9062 39.4063 47.9062 40.5001 40.9688 42.0313C40.5625 40.4376 40.2188 38.8126 39.875 37.1876C36.9375 22.0626 38.875 10.6563 43.8125 7.81256ZM36.1562 90.1876C34.8438 89.8126 33.5625 89.4063 32.2812 88.9688C25.625 86.8751 18.0625 83.5626 12.5938 79.2188C9.4375 77.0313 7.3125 73.6563 6.71875 69.8751C6.71875 64.1563 16.5938 56.8438 30.8438 51.8751C32.625 51.2501 34.4375 50.6876 36.25 50.1563C38.375 56.9376 40.9375 63.5938 43.9062 70.0313C40.9062 76.5626 38.3125 83.3126 36.1562 90.1876ZM72.5938 120.813C67.4375 125.531 61.4688 129.281 54.9688 131.844C51.5 133.5 47.5 133.656 43.9375 132.25C38.9688 129.375 36.9062 118.344 39.7188 103.5C40.0625 101.75 40.4375 100 40.875 98.2813C47.875 99.7813 54.9375 100.813 62.0938 101.344C66.2188 107.188 70.75 112.781 75.5938 118.031C74.5938 119 73.5938 119.938 72.5938 120.813ZM80.25 113.219C77.0625 109.781 73.875 105.969 70.7812 101.875C73.7812 102 76.875 102.063 80 102.063C83.2188 102.063 86.375 102 89.5 101.844C86.625 105.813 83.5312 109.594 80.25 113.219ZM121.094 122.594C120.812 126.406 118.938 129.969 115.938 132.375C110.969 135.25 100.375 131.5 88.9375 121.688C87.625 120.563 86.3125 119.344 84.9688 118.094C89.75 112.813 94.1562 107.219 98.1562 101.344C105.312 100.75 112.438 99.6563 119.469 98.0625C119.781 99.3438 120.062 100.625 120.312 101.875C121.844 108.625 122.094 115.656 121.094 122.594ZM126.781 89C125.906 89.2813 125.031 89.5625 124.125 89.8125C121.938 83 119.25 76.3438 116.156 69.8751C119.156 63.5001 121.688 56.9375 123.812 50.2188C125.438 50.6875 127 51.1875 128.5 51.6875C143.062 56.6875 153.281 64.125 153.281 69.8125C153.281 75.9375 142.375 83.8438 126.781 89ZM80 84.3125C87.9062 84.3125 94.3125 77.9063 94.3125 70.0001C94.3125 62.0938 87.9062 55.6875 80 55.6875C72.0938 55.6875 65.6875 62.0938 65.6875 70.0001C65.6875 77.9063 72.0938 84.3125 80 84.3125Z" fill="white"/>
</svg>
