<svg xmlns="http://www.w3.org/2000/svg" width="66.19" height="64.535" viewBox="0 0 66.19 64.535">
  <path id="Icon_simple-adobexd" data-name="Icon simple-adobexd" d="M54.469.45H11.721A11.711,11.711,0,0,0,0,12.171V53.264A11.711,11.711,0,0,0,11.721,64.985H54.469A11.711,11.711,0,0,0,66.19,53.264V12.171A11.711,11.711,0,0,0,54.469.45ZM63.4,52.189a9.992,9.992,0,0,1-9.984,10.039H12.769A10.028,10.028,0,0,1,2.758,52.216v-39A10.028,10.028,0,0,1,12.769,3.208H53.393A10.011,10.011,0,0,1,63.4,13.219ZM26.173,30.649l7.722,14.838c.138.221.055.441-.165.441h-4.8a.541.541,0,0,1-.579-.359c-1.765-3.64-3.558-7.281-5.406-11.2h-.055c-1.655,3.7-3.475,7.584-5.24,11.225a.53.53,0,0,1-.5.3H12.6c-.276,0-.3-.221-.165-.386l7.557-14.4L12.686,16.556a.223.223,0,0,1,.165-.386H17.6a.434.434,0,0,1,.5.3c1.737,3.64,3.5,7.391,5.157,11.059H23.3c1.6-3.64,3.365-7.419,5.075-11.032.138-.221.221-.359.5-.359h4.44c.221,0,.3.165.165.386Zm9.074,4.5c0-6.426,4.275-11.445,11.059-11.445a12.23,12.23,0,0,1,1.434.055V16.446a.276.276,0,0,1,.276-.276h4.358c.221,0,.276.083.276.221V41.709a19.643,19.643,0,0,0,.138,2.7c0,.165-.055.221-.221.3a16.428,16.428,0,0,1-7.06,1.6C39.521,46.342,35.246,42.646,35.246,35.145Zm12.493-7.06a4.171,4.171,0,0,0-1.6-.276c-3.475,0-5.9,2.675-5.9,7.115,0,5.075,2.482,7.115,5.6,7.115a5.2,5.2,0,0,0,1.9-.3V28.084Z" transform="translate(0 -0.45)" fill="#1ac5ff"/>
</svg>
