<svg xmlns="http://www.w3.org/2000/svg" width="9.689" height="10.437" viewBox="0 0 9.689 10.437">
  <g id="Group_98" data-name="Group 98" transform="translate(-298.646 -1726.552)">
    <path id="Path_24" data-name="Path 24" d="M3.175-32.516a.387.387,0,0,0,.28.117.431.431,0,0,0,.28-.117l1.074-1.121a.4.4,0,0,0,0-.537L3.736-35.294a.4.4,0,0,0-.56-.023.4.4,0,0,0-.023.56l.42.444H1.8a1,1,0,0,1-1-1,1,1,0,0,1,1-1h.35a.409.409,0,0,0,.4-.4.409.409,0,0,0-.4-.4H1.8a1.8,1.8,0,0,0-1.8,1.8,1.8,1.8,0,0,0,1.8,1.8H3.572l-.42.444A.426.426,0,0,0,3.175-32.516Z" transform="translate(298.646 1767.754)" fill="#1ac5ff"/>
    <path id="Path_25" data-name="Path 25" d="M33.906-37.115a.409.409,0,0,0-.4.4.409.409,0,0,0,.4.4,1,1,0,0,1,1,1,1,1,0,0,1-1,1H31.781a.409.409,0,0,0-.4.4.409.409,0,0,0,.4.4h2.125a1.8,1.8,0,0,0,1.8-1.8A1.8,1.8,0,0,0,33.906-37.115Z" transform="translate(272.632 1767.754)" fill="#1ac5ff"/>
    <path id="Path_26" data-name="Path 26" d="M18.376-56a.409.409,0,0,0,.4-.4v-3.642l2.381.817v4.132a.409.409,0,0,0,.4.4.409.409,0,0,0,.4-.4v-4.436a.411.411,0,0,0-.257-.374l-3.175-1.074a.372.372,0,0,0-.35.047A.408.408,0,0,0,18-60.6v4.179A.381.381,0,0,0,18.376-56Z" transform="translate(283.726 1787.552)" fill="#1ac5ff"/>
    <path id="Path_27" data-name="Path 27" d="M21.437-12.417a.409.409,0,0,0-.4.4v.607l-2.825.327a.4.4,0,0,0-.35.444.385.385,0,0,0,.4.35h.047l3.175-.374a.385.385,0,0,0,.35-.4v-.957A.409.409,0,0,0,21.437-12.417Z" transform="translate(283.84 1747.281)" fill="#1ac5ff"/>
  </g>
</svg>
