<svg xmlns="http://www.w3.org/2000/svg" width="66.19" height="64.535" viewBox="0 0 66.19 64.535">
  <path id="Icon_simple-adobephotoshop" data-name="Icon simple-adobephotoshop" d="M0,.45V64.985H66.19V.45ZM2.758,3.208H63.432v59.02H2.758ZM16,15.563c0-.185.386-.32.618-.32,1.776-.091,4.38-.138,7.11-.138,7.645,0,10.618,4.192,10.618,9.559,0,7.005-5.08,10.011-11.313,10.011-1.048,0-1.407-.047-2.137-.047v10.6c0,.229-.091.32-.317.32H16.316c-.229,0-.317-.083-.317-.312V15.563Zm4.9,14.65c.634.044,1.136.044,2.234.044,3.227,0,6.26-1.136,6.26-5.5,0-3.5-2.168-5.279-5.852-5.279-1.092,0-2.137.044-2.639.091V30.222Zm23.737-3.276c-2.184,0-2.912,1.092-2.912,2,0,1,.5,1.682,3.412,3.185,4.324,2.1,5.687,4.1,5.687,7.052,0,4.413-3.365,6.784-7.915,6.784a12.049,12.049,0,0,1-5.654-1.186c-.179-.091-.221-.226-.221-.455V40.274c0-.276.132-.367.314-.232a10.16,10.16,0,0,0,5.549,1.638c2.184,0,3.094-.91,3.094-2.14,0-1-.634-1.867-3.412-3.323-3.916-1.875-5.554-3.778-5.554-6.969,0-3.549,2.774-6.509,7.6-6.509a12.855,12.855,0,0,1,4.948.772.6.6,0,0,1,.276.546v3.778c0,.229-.138.367-.414.276a9.876,9.876,0,0,0-4.807-1.186Z" transform="translate(0 -0.45)" fill="#1ac5ff"/>
</svg>
