<svg xmlns="http://www.w3.org/2000/svg" width="66.19" height="49.647" viewBox="0 0 66.19 49.647">
  <path id="Icon_awesome-sass" data-name="Icon awesome-sass" d="M31.217,38.659C31.186,38.721,31.155,38.771,31.217,38.659Zm25.766-9a13.565,13.565,0,0,0-6,1.4,12.739,12.739,0,0,1-1.345-3.113,8.31,8.31,0,0,1-.114-2.617,22.036,22.036,0,0,1,.786-2.813c-.01-.114-.145-.683-1.479-.693s-2.482.259-2.616.61a12.7,12.7,0,0,0-.548,1.975c-.238,1.21-2.667,5.533-4.043,7.788a8.031,8.031,0,0,1-.92-2.275,8.31,8.31,0,0,1-.114-2.617,22.036,22.036,0,0,1,.786-2.813c-.01-.114-.145-.683-1.478-.693s-2.482.259-2.617.61-.279,1.179-.548,1.975-3.505,7.995-4.352,9.867c-.434.951-.807,1.717-1.076,2.234-.041.083-.072.134-.093.176.031-.052.052-.1.052-.083-.228.445-.362.693-.362.693v.01c-.176.331-.372.631-.465.631a4.29,4.29,0,0,1,.031-2.058c.486-2.5,1.634-6.392,1.624-6.526-.01-.072.217-.745-.755-1.107a1.217,1.217,0,0,0-1.365.228c-.083,0-.145.207-.145.207s1.045-4.385-2.005-4.385c-1.9,0-4.551,2.089-5.852,3.982-.817.445-2.586,1.407-4.447,2.43-.714.393-1.448.8-2.141,1.179-.052-.052-.093-.1-.145-.155C11.538,29.754,4.7,26.962,4.993,21.656c.1-1.934.776-7.012,13.142-13.176C28.271,3.433,36.374,4.819,37.769,7.9c2.006,4.4-4.332,12.576-14.858,13.755-4.012.445-6.121-1.107-6.648-1.686-.548-.61-.631-.641-.838-.527-.341.186-.124.724,0,1.045a6.232,6.232,0,0,0,3.8,2.989c1.934.631,6.638.983,12.325-1.22,6.389-2.461,11.363-9.318,9.9-15.058C39.975,1.365,30.3-.549,21.157,2.7,15.708,4.633,9.815,7.674,5.575,11.635.54,16.351-.266,20.457.065,22.174c1.178,6.092,9.574,10.063,12.934,13-.165.093-.321.176-.465.259-1.685.838-8.086,4.189-9.688,7.726-1.81,4.013.3,6.888,1.685,7.281A10.326,10.326,0,0,0,15.656,45.93a11.2,11.2,0,0,0,.993-10.291c-.01-.031-.031-.052-.041-.083.434-.259.879-.517,1.324-.776.857-.507,1.7-.972,2.429-1.376a16.064,16.064,0,0,0-.869,4.406c-.186,2.275.755,5.223,1.975,6.381a2.171,2.171,0,0,0,1.592.517c1.427,0,2.068-1.179,2.781-2.586.879-1.717,1.655-3.713,1.655-3.713s-.972,5.4,1.686,5.4c.971,0,1.943-1.251,2.379-1.893v.01s.021-.041.072-.124c.1-.155.155-.248.155-.248v-.031c.393-.672,1.251-2.213,2.543-4.757,1.675-3.289,3.277-7.395,3.277-7.395a20.814,20.814,0,0,0,.641,2.668,24.982,24.982,0,0,0,1.386,3.1c-.393.538-.631.848-.631.848a.032.032,0,0,0,.01.021c-.31.414-.662.858-1.024,1.293a36.506,36.506,0,0,0-3.1,3.889,1.057,1.057,0,0,0,.29,1.417,2.514,2.514,0,0,0,1.623.259,7.172,7.172,0,0,0,2.43-.558,8.5,8.5,0,0,0,2.088-1.1A4.669,4.669,0,0,0,43.325,37.1a8.566,8.566,0,0,0-.755-2.917c.114-.165.238-.341.352-.517a54.981,54.981,0,0,0,3.629-6.27,20.813,20.813,0,0,0,.641,2.668,18.243,18.243,0,0,0,1.178,2.658,11.369,11.369,0,0,0-3.526,4.561c-.765,2.2-.165,3.2.962,3.423a3.47,3.47,0,0,0,1.769-.362,8.218,8.218,0,0,0,2.233-1.148c1.293-.951,2.543-2.286,2.46-4.1a7.694,7.694,0,0,0-.558-2.42,12.624,12.624,0,0,1,6.422-.745c5.759.672,6.886,4.271,6.669,5.771a3.824,3.824,0,0,1-1.831,2.586c-.4.248-.527.341-.5.527.052.269.238.259.579.2a4.493,4.493,0,0,0,3.133-4c.165-3.516-3.215-7.384-9.2-7.353ZM12.6,44.627c-1.9,2.079-4.57,2.865-5.717,2.2-1.231-.716-.745-3.775,1.6-5.99a30.644,30.644,0,0,1,4.488-3.351c.279-.165.683-.414,1.179-.714.083-.052.124-.072.124-.072.093-.062.2-.114.3-.176a8.255,8.255,0,0,1-1.975,8.1Zm13.9-9.453c-.662,1.624-2.057,5.761-2.905,5.543-.724-.186-1.169-3.341-.145-6.443a14.264,14.264,0,0,1,2.265-4.147c1.044-1.169,2.192-1.541,2.46-1.076C28.529,29.661,26.905,34.16,26.492,35.174Zm11.48,5.481c-.279.145-.538.238-.662.165-.093-.052.114-.248.114-.248s1.438-1.541,2.006-2.244c.331-.414.714-.9,1.126-1.438,0,.052.01.1.01.165-.013,1.851-1.791,3.1-2.6,3.6Zm8.851-2.017c-.207-.145-.176-.631.517-2.141A8.038,8.038,0,0,1,49.3,33.964a3.742,3.742,0,0,1,.2,1.117,3.646,3.646,0,0,1-2.678,3.558Z" transform="translate(0 -1.125)" fill="#fff"/>
</svg>
